<svg width="24" height="24" viewBox="0 0 24 24" fill="none" xmlns="http://www.w3.org/2000/svg">
<path d="M13.7795 15.1678L15.9003 13.047L21.8952 19.0418L19.7744 21.1626L13.7795 15.1678ZM17.496 9.9971C19.4256 9.9971 20.9952 8.42747 20.9952 6.49792C20.9952 5.91806 20.8352 5.37818 20.5853 4.89829L17.8859 7.59766L16.3963 6.10801L19.0956 3.40864C18.6158 3.1587 18.0759 2.99874 17.496 2.99874C15.5665 2.99874 13.9968 4.56837 13.9968 6.49792C13.9968 6.90783 14.0768 7.29773 14.2068 7.65765L12.3572 9.50722L10.5776 7.72763L11.2875 7.0178L9.87779 5.60813L11.9973 3.48862C10.8276 2.3189 8.92802 2.3189 7.75829 3.48862L4.21911 7.0278L5.62879 8.43747H2.80944L2.09961 9.1473L5.63878 12.6865L6.34862 11.9766V9.1473L7.75829 10.557L8.46812 9.84714L10.2477 11.6267L2.83944 19.035L4.95894 21.1545L16.3363 9.78715C16.6962 9.91712 17.0861 9.9971 17.496 9.9971Z" fill="white"/>
</svg>
