<svg width="20" height="20" viewBox="0 0 20 20" fill="none" xmlns="http://www.w3.org/2000/svg">
<path d="M5.82783 14.9881C4.91193 14.9881 4.17089 15.7375 4.17089 16.6534C4.17089 17.5693 4.91193 18.3187 5.82783 18.3187C6.74373 18.3187 7.4931 17.5693 7.4931 16.6534C7.4931 15.7375 6.74373 14.9881 5.82783 14.9881ZM0.832031 1.66602V3.33128H2.4973L5.49478 9.65097L4.37072 11.6909C4.2375 11.9241 4.16256 12.1988 4.16256 12.4902C4.16256 13.4061 4.91193 14.1555 5.82783 14.1555H15.8194V12.4902H6.17754C6.06097 12.4902 5.96938 12.3987 5.96938 12.2821L5.99436 12.1822L6.74373 10.825H12.9468C13.5713 10.825 14.1209 10.4836 14.404 9.96737L17.3848 4.56358C17.4514 4.44701 17.4847 4.30546 17.4847 4.16392C17.4847 3.70597 17.11 3.33128 16.6521 3.33128H4.33742L3.55474 1.66602H0.832031ZM14.1542 14.9881C13.2383 14.9881 12.4972 15.7375 12.4972 16.6534C12.4972 17.5693 13.2383 18.3187 14.1542 18.3187C15.0701 18.3187 15.8194 17.5693 15.8194 16.6534C15.8194 15.7375 15.0701 14.9881 14.1542 14.9881Z" fill="#404040"/>
</svg>
