<svg width="20" height="20" viewBox="0 0 20 20" fill="none" xmlns="http://www.w3.org/2000/svg">
<g clip-path="url(#clip0_708_335)">
<path d="M9.99114 3.32993V0.832031L6.66061 4.16256L9.99114 7.4931V4.9952C12.7472 4.9952 14.9869 7.23498 14.9869 9.991C14.9869 10.832 14.7788 11.6313 14.4041 12.3224L15.6197 13.538C16.2692 12.5139 16.6522 11.2982 16.6522 9.991C16.6522 6.31076 13.6714 3.32993 9.99114 3.32993ZM9.99114 14.9868C7.23513 14.9868 4.99534 12.747 4.99534 9.991C4.99534 9.15004 5.2035 8.35071 5.57819 7.65962L4.36254 6.44398C3.71309 7.46812 3.33008 8.68376 3.33008 9.991C3.33008 13.6712 6.31091 16.6521 9.99114 16.6521V19.15L13.3217 15.8194L9.99114 12.4889V14.9868Z" fill="white"/>
</g>
<defs>
<clipPath id="clip0_708_335">
<rect width="19.9832" height="19.9832" fill="white"/>
</clipPath>
</defs>
</svg>
