<svg width="20" height="20" viewBox="0 0 20 20" fill="none" xmlns="http://www.w3.org/2000/svg">
<path d="M16.6521 6.66061H14.1542V3.33008H2.4973C1.5814 3.33008 0.832031 4.07945 0.832031 4.99534V14.1543H2.4973C2.4973 15.5365 3.61303 16.6522 4.9952 16.6522C6.37737 16.6522 7.4931 15.5365 7.4931 14.1543H12.4889C12.4889 15.5365 13.6046 16.6522 14.9868 16.6522C16.369 16.6522 17.4847 15.5365 17.4847 14.1543H19.15V9.99114L16.6521 6.66061ZM4.9952 15.4033C4.30411 15.4033 3.74625 14.8454 3.74625 14.1543C3.74625 13.4632 4.30411 12.9054 4.9952 12.9054C5.68628 12.9054 6.24415 13.4632 6.24415 14.1543C6.24415 14.8454 5.68628 15.4033 4.9952 15.4033ZM16.2357 7.90956L17.8677 9.99114H14.1542V7.90956H16.2357ZM14.9868 15.4033C14.2957 15.4033 13.7378 14.8454 13.7378 14.1543C13.7378 13.4632 14.2957 12.9054 14.9868 12.9054C15.6779 12.9054 16.2357 13.4632 16.2357 14.1543C16.2357 14.8454 15.6779 15.4033 14.9868 15.4033Z" fill="white"/>
</svg>
