<svg width="20" height="20" viewBox="0 0 20 20" fill="none" xmlns="http://www.w3.org/2000/svg">
<g clip-path="url(#clip0_623_2085)">
<path d="M16.6521 6.66061H14.1542V3.33008H2.4973C1.5814 3.33008 0.832031 4.07945 0.832031 4.99534V14.1543H2.4973C2.4973 15.5365 3.61303 16.6522 4.9952 16.6522C6.37737 16.6522 7.4931 15.5365 7.4931 14.1543H12.4889C12.4889 15.5365 13.6046 16.6522 14.9868 16.6522C16.369 16.6522 17.4847 15.5365 17.4847 14.1543H19.15V9.99114L16.6521 6.66061ZM16.2357 7.90956L17.8677 9.99114H14.1542V7.90956H16.2357ZM4.9952 14.9869C4.53725 14.9869 4.16256 14.6123 4.16256 14.1543C4.16256 13.6964 4.53725 13.3217 4.9952 13.3217C5.45315 13.3217 5.82783 13.6964 5.82783 14.1543C5.82783 14.6123 5.45315 14.9869 4.9952 14.9869ZM6.84364 12.489C6.3857 11.9811 5.73624 11.6564 4.9952 11.6564C4.25415 11.6564 3.6047 11.9811 3.14675 12.489H2.4973V4.99534H12.4889V12.489H6.84364ZM14.9868 14.9869C14.5288 14.9869 14.1542 14.6123 14.1542 14.1543C14.1542 13.6964 14.5288 13.3217 14.9868 13.3217C15.4447 13.3217 15.8194 13.6964 15.8194 14.1543C15.8194 14.6123 15.4447 14.9869 14.9868 14.9869Z" fill="#155DFC"/>
</g>
<defs>
<clipPath id="clip0_623_2085">
<rect width="19.9832" height="19.9832" fill="white"/>
</clipPath>
</defs>
</svg>
