<svg width="24" height="24" viewBox="0 0 24 24" fill="none" xmlns="http://www.w3.org/2000/svg">
<path d="M6.9986 17.9963C5.89886 17.9963 5.00906 18.8961 5.00906 19.9958C5.00906 21.0955 5.89886 21.9953 6.9986 21.9953C8.09834 21.9953 8.99813 21.0955 8.99813 19.9958C8.99813 18.8961 8.09834 17.9963 6.9986 17.9963ZM1 2V3.99953H2.99953L6.59869 11.5878L5.24901 14.0372C5.08905 14.3171 4.99907 14.647 4.99907 14.997C4.99907 16.0967 5.89886 16.9965 6.9986 16.9965H18.9958V14.997H7.4185C7.27853 14.997 7.16856 14.887 7.16856 14.747L7.19855 14.6271L8.09834 12.9974H15.5466C16.2964 12.9974 16.9563 12.5875 17.2962 11.9677L20.8754 5.47919C20.9553 5.33922 20.9953 5.16926 20.9953 4.9993C20.9953 4.44943 20.5454 3.99953 19.9956 3.99953H5.20902L4.26924 2H1ZM16.9963 17.9963C15.8965 17.9963 15.0067 18.8961 15.0067 19.9958C15.0067 21.0955 15.8965 21.9953 16.9963 21.9953C18.096 21.9953 18.9958 21.0955 18.9958 19.9958C18.9958 18.8961 18.096 17.9963 16.9963 17.9963Z" fill="#404040"/>
</svg>
