<svg width="20" height="20" viewBox="0 0 20 20" fill="none" xmlns="http://www.w3.org/2000/svg">
<path d="M14.1543 9.991C11.8562 9.991 9.99114 11.8561 9.99114 14.1542C9.99114 16.4522 11.8562 18.3173 14.1543 18.3173C16.4524 18.3173 18.3175 16.4522 18.3175 14.1542C18.3175 11.8561 16.4524 9.991 14.1543 9.991ZM15.5282 16.1109L13.738 14.3207V11.6563H14.5706V13.9793L16.111 15.5197L15.5282 16.1109ZM14.9869 2.4973H12.3392C11.9895 1.53144 11.0736 0.832031 9.99114 0.832031C8.90872 0.832031 7.99283 1.53144 7.64312 2.4973H4.99534C4.07945 2.4973 3.33008 3.24667 3.33008 4.16256V16.6521C3.33008 17.568 4.07945 18.3173 4.99534 18.3173H10.0827C9.59148 17.8427 9.19182 17.2765 8.90039 16.6521H4.99534V4.16256H6.66061V6.66046H13.3217V4.16256H14.9869V8.39234C15.5781 8.47561 16.136 8.65046 16.6522 8.89192V4.16256C16.6522 3.24667 15.9028 2.4973 14.9869 2.4973ZM9.99114 4.16256C9.5332 4.16256 9.15851 3.78788 9.15851 3.32993C9.15851 2.87198 9.5332 2.4973 9.99114 2.4973C10.4491 2.4973 10.8238 2.87198 10.8238 3.32993C10.8238 3.78788 10.4491 4.16256 9.99114 4.16256Z" fill="#E48714"/>
</svg>
