<svg width="24" height="24" viewBox="0 0 24 24" fill="none" xmlns="http://www.w3.org/2000/svg">
<path d="M11.9974 4.49805C6.9986 4.49805 2.7296 7.60732 1 11.9963C2.7296 16.3853 6.9986 19.4945 11.9974 19.4945C16.9963 19.4945 21.2653 16.3853 22.9949 11.9963C21.2653 7.60732 16.9963 4.49805 11.9974 4.49805ZM11.9974 16.9951C9.23808 16.9951 6.9986 14.7557 6.9986 11.9963C6.9986 9.23694 9.23808 6.99746 11.9974 6.99746C14.7568 6.99746 16.9963 9.23694 16.9963 11.9963C16.9963 14.7557 14.7568 16.9951 11.9974 16.9951ZM11.9974 8.997C10.3378 8.997 8.99813 10.3367 8.99813 11.9963C8.99813 13.6559 10.3378 14.9956 11.9974 14.9956C13.657 14.9956 14.9967 13.6559 14.9967 11.9963C14.9967 10.3367 13.657 8.997 11.9974 8.997Z" fill="#6A7282"/>
</svg>
